PathFileType	4	(X/Y/Z)	C:\Users\°ÂÌØÂü\Desktop\20201223\Trimmed_bx_n_5_501.trc
DataRate	CameraRate	NumFrames	NumMarkers	Units	OrigDataRate	OrigDataStartFrame	OrigNumFrames
50.00	50.00	      6	43	mm	50.00	723	      1445
Frame#	Time	Top.Head			R.Acromium			L.Acromium			Sternum			R.ASIS			L.ASIS			V.Sacral			R.Thigh.Upper			R.Thigh.Front			R.Thigh.Rear			R.Knee.Lat			R.Knee.Med			R.Shank.Upper			R.Shank.Front			R.Shank.Rear			R.Ankle.Lat			R.Midfoot.Lat			R.Toe.Lat			R.Toe.Tip			R.Toe.Med			R.Ankle.Med			R.Midfoot.Sup			R.Heel			L.Thigh.Upper			L.Thigh.Front			L.Thigh.Rear			L.Knee.Lat			L.Knee.Med			L.Shank.Upper			L.Shank.Front			L.Shank.Rear			L.Ankle.Lat			L.Midfoot.Lat			L.Toe.Lat			L.Toe.Tip			L.Toe.Med			L.Ankle.Med			L.Midfoot.Sup			L.Heel			origin1 front left			origin2 front right			origin 3 back right			origin 4 back leftt			
		X1	Y1	Z1	X2	Y2	Z2	X3	Y3	Z3	X4	Y4	Z4	X5	Y5	Z5	X6	Y6	Z6	X7	Y7	Z7	X8	Y8	Z8	X9	Y9	Z9	X10	Y10	Z10	X11	Y11	Z11	X12	Y12	Z12	X13	Y13	Z13	X14	Y14	Z14	X15	Y15	Z15	X16	Y16	Z16	X17	Y17	Z17	X18	Y18	Z18	X19	Y19	Z19	X20	Y20	Z20	X21	Y21	Z21	X22	Y22	Z22	X23	Y23	Z23	X24	Y24	Z24	X25	Y25	Z25	X26	Y26	Z26	X27	Y27	Z27	X28	Y28	Z28	X29	Y29	Z29	X30	Y30	Z30	X31	Y31	Z31	X32	Y32	Z32	X33	Y33	Z33	X34	Y34	Z34	X35	Y35	Z35	X36	Y36	Z36	X37	Y37	Z37	X38	Y38	Z38	X39	Y39	Z39	X40	Y40	Z40	X41	Y41	Z41	X42	Y42	Z42	X43	Y43	Z43	

723	14.440	-523.79358	262.21576	1808.94226	-537.99707	88.24701	1501.14429	-540.23999	446.54669	1509.60498	-525.00507	269.79868	1311.51843	-607.92438	140.29427	1033.02942	-592.63977	367.92889	1035.83569	-801.07306	257.63248	1067.41772	-687.58154	87.69386	838.77979	-595.71368	141.26590	818.46045	-683.12329	95.81067	727.67078	-706.61108	117.36081	606.15155	-679.96411	222.65848	560.73120	-731.64984	115.24785	537.73358	-651.62042	162.32838	527.79138	-736.01770	106.60059	485.68585	-702.44055	134.10573	211.33357	-625.18921	72.35060	164.00819	-578.56219	48.67851	159.18849	-503.12225	94.60913	159.88838	-544.05792	145.33989	164.06129	-652.91022	209.97867	222.33287	-607.94226	183.13681	171.60713	-734.36688	200.58698	169.29543	-689.25110	443.44183	857.18634	-599.45178	402.08038	818.86981	-702.59686	431.24127	741.14880	-705.41254	412.52673	604.12128	-681.49573	303.25705	569.63782	-717.32288	414.03076	557.20764	-652.91205	363.35281	537.94574	-764.92102	412.33554	488.16183	-687.18347	409.77185	213.72685	-589.46411	464.11502	162.09540	-551.28680	476.02283	157.43060	-490.12027	424.51691	166.54762	-528.23920	386.43930	177.15657	-646.66821	322.56216	210.89238	-595.22083	343.92960	172.47940	-732.53204	336.67493	162.27287	-444.08768	448.54166	146.35358	-450.42310	74.98699	143.11182	-806.42645	82.38937	141.12950	-799.50226	456.93839	144.95622	
724	14.460	-536.19116	261.47086	1813.13965	-545.30621	87.43663	1504.78906	-547.64587	446.31378	1513.18127	-526.79242	269.47510	1315.63574	-604.10394	139.97339	1033.79272	-588.81000	367.57239	1036.67395	-797.43982	257.29346	1066.64136	-683.75421	87.46377	838.94122	-591.88458	140.99222	818.40778	-679.90967	95.73526	727.87030	-704.13800	117.28324	606.33716	-677.48553	222.55121	560.90204	-729.57245	115.27505	537.99945	-649.53259	162.15591	527.63123	-734.28949	106.67822	485.99234	-702.29346	134.20866	211.38835	-625.20203	72.35255	164.02719	-578.58124	48.65784	159.20566	-503.06641	94.56232	159.88739	-544.05981	145.29822	164.11172	-652.65253	210.09917	222.16731	-607.84485	183.17961	171.54239	-734.33240	200.68829	169.30595	-685.20276	443.09698	857.40869	-595.68286	401.79456	818.97937	-699.24731	430.92514	741.51965	-702.90399	412.24506	604.46411	-678.94031	303.04898	569.78259	-715.10382	413.73703	557.56403	-650.72729	363.19794	537.94171	-763.10059	411.87186	488.79068	-687.07831	409.63083	213.77518	-589.52252	464.13354	162.07344	-551.30621	475.99393	157.46463	-490.18079	424.57776	166.56966	-528.27094	386.53003	177.23502	-646.52173	322.49643	210.76682	-595.20764	343.95349	172.48299	-732.55652	336.64670	162.21590	-444.08664	448.54071	146.36206	-450.42886	74.97878	143.10269	-806.38959	82.36690	141.12471	-799.50293	456.92987	144.94118	
725	14.480	-548.51123	260.73709	1816.91248	-552.59601	86.63129	1508.10596	-555.00323	446.04187	1516.44031	-528.61450	269.11301	1319.57263	-600.35309	139.64436	1034.50659	-584.97791	367.19659	1037.45789	-793.82404	256.99228	1065.86035	-679.94708	87.22446	839.07373	-588.06879	140.71135	818.36346	-676.69598	95.65620	728.05377	-701.67462	117.19562	606.50458	-675.03217	222.43623	561.07336	-727.50256	115.30392	538.24493	-647.45746	161.99243	527.46069	-732.56360	106.75964	486.27771	-702.13123	134.31805	211.44621	-625.20941	72.37008	164.05101	-578.59546	48.64591	159.23077	-503.01700	94.52235	159.88298	-544.06152	145.25963	164.15865	-652.40765	210.22340	221.98671	-607.72968	183.23491	171.50092	-734.29718	200.78964	169.31749	-681.09119	442.77048	857.60699	-591.84222	401.48981	819.11078	-695.83350	430.61697	741.87164	-700.34070	411.97708	604.80060	-676.38513	302.83902	569.91351	-712.84283	413.46457	557.90918	-648.52429	363.03522	537.93622	-761.23053	411.45221	489.41061	-686.94843	409.51233	213.83400	-589.57178	464.14761	162.05199	-551.32007	475.96365	157.50304	-490.23245	424.62241	166.58566	-528.29565	386.60742	177.31093	-646.35303	322.41568	210.66754	-595.18872	343.98083	172.49692	-732.57068	336.61563	162.16702	-444.07892	448.53680	146.36314	-450.43384	74.97144	143.09505	-806.34930	82.34826	141.11610	-799.49518	456.92490	144.92422	
726	14.500	-560.71997	260.01105	1820.26331	-559.84045	85.83565	1511.09131	-562.27521	445.73761	1519.39868	-530.45587	268.71921	1323.32214	-596.67834	139.30127	1035.17078	-581.15631	366.81049	1038.18835	-790.24072	256.72455	1065.07874	-676.16382	86.97305	839.17773	-584.27448	140.42438	818.32898	-673.48505	95.57221	728.22150	-699.22607	117.09515	606.65741	-672.61194	222.31352	561.24469	-725.44482	115.33241	538.47034	-645.39996	161.83806	527.28192	-730.84369	106.84191	486.54370	-701.95618	134.43356	211.50421	-625.21210	72.40117	164.07835	-578.60480	48.64272	159.26312	-502.97601	94.48931	159.87518	-544.06207	145.22455	164.20139	-652.17450	210.34427	221.79919	-607.60535	183.29868	171.47919	-734.26080	200.88783	169.33037	-676.93317	442.46399	857.78186	-587.94250	401.16855	819.26288	-692.37006	430.31171	742.20221	-697.73218	411.72308	605.12958	-673.83502	302.62506	570.02875	-710.54620	413.21082	558.24011	-646.30884	362.86084	537.92908	-759.31628	411.07996	490.01910	-686.79370	409.41431	213.90181	-589.60992	464.15457	162.03314	-551.32935	475.93240	157.54474	-490.26920	424.64932	166.59642	-528.31189	386.66852	177.38144	-646.15930	322.31644	210.59328	-595.16455	344.00958	172.51198	-732.57355	336.57907	162.12668	-444.06311	448.53033	146.35684	-450.43777	74.96582	143.08957	-806.30914	82.33269	141.10605	-799.47754	456.92523	144.90691	
727	14.520	-572.77832	259.28729	1823.19702	-567.00787	85.05296	1513.74512	-569.42358	445.40680	1522.07336	-532.29962	268.30148	1326.87683	-593.08398	138.94016	1035.78418	-577.36212	366.42474	1038.86487	-786.70313	256.48431	1064.30090	-672.41083	86.70761	839.25439	-580.51343	140.13480	818.30353	-670.28278	95.48269	728.37323	-696.79907	116.98067	606.79932	-670.23401	222.18420	561.41461	-723.40546	115.35859	538.67603	-643.36676	161.69344	527.09698	-729.13507	106.92249	486.79272	-701.77203	134.55370	211.56029	-625.21088	72.44289	164.10818	-578.60956	48.64801	159.30186	-502.94473	94.46282	159.86438	-544.06104	145.19336	164.23921	-651.95038	210.45558	221.61414	-607.48071	183.36647	171.47220	-734.22272	200.97990	169.34451	-672.75165	442.17914	857.93396	-584.00586	400.83221	819.43054	-688.87817	430.00592	742.50879	-695.09357	411.48288	605.44946	-671.29736	302.40643	570.12683	-708.22412	412.97250	558.55377	-644.09009	362.67157	537.91907	-757.36737	410.75601	490.61301	-686.61505	409.33337	213.97594	-589.63562	464.15225	162.01903	-551.33533	475.90100	157.58839	-490.28625	424.65842	166.60291	-528.31836	386.71103	177.44403	-645.94067	322.19659	210.53972	-595.13611	344.03717	172.51808	-732.56445	336.53537	162.09462	-444.03845	448.52252	146.34460	-450.44049	74.96241	143.08650	-806.27228	82.31955	141.09625	-799.45013	456.93170	144.89078	
728	14.540	-584.64319	258.55887	1825.72168	-574.06213	84.28489	1516.07153	-576.41003	445.05380	1524.48132	-534.12744	267.86768	1330.23022	-589.57190	138.55980	1036.34460	-573.61548	366.05069	1039.48523	-783.22266	256.26456	1063.53113	-668.69714	86.42744	839.30505	-576.80029	139.84824	818.28412	-667.09833	95.38784	728.50824	-694.40161	116.85269	606.93341	-667.90845	222.05046	561.58081	-721.39166	115.38094	538.86310	-641.36615	161.55984	526.90796	-727.44409	106.99947	487.02740	-701.58350	134.67598	211.61343	-625.20636	72.49187	164.13976	-578.61011	48.66142	159.34616	-502.92343	94.44209	159.85126	-544.05817	145.16650	164.27132	-651.73145	210.55281	221.44064	-607.36353	183.43391	171.47421	-734.18237	201.06348	169.35953	-668.57532	441.91714	858.06421	-580.06274	400.48132	819.60529	-685.38403	429.69843	742.78900	-692.44470	411.25571	605.75800	-668.78265	302.18411	570.20728	-705.89050	412.74606	558.84723	-641.87994	362.46533	537.90436	-755.39709	410.47882	491.18884	-686.41467	409.26529	214.05289	-589.64819	464.13892	162.01163	-551.33923	475.87042	157.63261	-490.28058	424.65100	166.60593	-528.31439	386.73355	177.49673	-645.70038	322.05585	210.50006	-595.10492	344.06064	172.50563	-732.54327	336.48392	162.07011	-444.00519	448.51535	146.32904	-450.44189	74.96126	143.08572	-806.24066	82.30845	141.08766	-799.41455	456.94391	144.87717	
